<svg width="36" height="23" viewBox="0 0 36 23" fill="none" xmlns="http://www.w3.org/2000/svg">
<path fill-rule="evenodd" clip-rule="evenodd" d="M0 11.4999C0 11.1684 0.131696 10.8504 0.366116 10.616C0.600537 10.3816 0.918479 10.2499 1.25 10.2499L30.7325 10.2499L22.865 2.38489C22.6303 2.15017 22.4984 1.83183 22.4984 1.49989C22.4984 1.16795 22.6303 0.849604 22.865 0.614887C23.0997 0.380169 23.4181 0.248308 23.75 0.248308C24.0819 0.248308 24.4003 0.380169 24.635 0.614887L34.635 10.6149C34.7514 10.731 34.8438 10.8689 34.9068 11.0208C34.9698 11.1727 35.0022 11.3355 35.0022 11.4999C35.0022 11.6643 34.9698 11.8271 34.9068 11.979C34.8438 12.1308 34.7514 12.2688 34.635 12.3849L24.635 22.3849C24.4003 22.6196 24.0819 22.7515 23.75 22.7515C23.4181 22.7515 23.0997 22.6196 22.865 22.3849C22.6303 22.1502 22.4984 21.8318 22.4984 21.4999C22.4984 21.1679 22.6303 20.8496 22.865 20.6149L30.7325 12.7499L1.25 12.7499C0.918479 12.7499 0.600537 12.6182 0.366116 12.3838C0.131696 12.1493 0 11.8314 0 11.4999Z" fill="#240434"/>
</svg>
