<svg width="35" height="45" viewBox="0 0 35 45" fill="none" xmlns="http://www.w3.org/2000/svg">
<path d="M15.6212 0H19.3788C23.7843 0 26.1467 0.62658 28.2855 1.80315C30.4244 2.97972 32.1031 4.7063 33.2469 6.90628C34.3908 9.10629 35 11.5362 35 16.0675V28.9325C35 33.4638 34.3908 35.8938 33.2469 38.0936C32.1031 40.2937 30.4244 42.0203 28.2855 43.1969C26.1467 44.3734 23.7843 45 19.3788 45H15.6212C11.2158 45 8.85334 44.3734 6.71444 43.1969C4.57557 42.0203 2.89695 40.2937 1.75306 38.0936C0.609175 35.8938 0 33.4638 0 28.9325V16.0675C0 11.5362 0.609175 9.10629 1.75306 6.90628C2.89695 4.7063 4.57557 2.97972 6.71444 1.80315C8.85334 0.62658 11.2158 0 15.6212 0ZM15.3125 9V20.25H19.6875V9H15.3125Z" fill="#43C6AC"/>
</svg>
