<svg width="21" height="21" viewBox="0 0 21 21" fill="none" xmlns="http://www.w3.org/2000/svg">
<path d="M10.0996 0.505859H10.7051C13.179 0.505859 15.5228 1.55729 17.7363 3.66016C19.2923 5.54818 20.1484 7.25716 20.3047 8.78711C20.4219 9.50977 20.4805 9.96875 20.4805 10.1641V10.9941C20.4805 12.3353 20.0247 13.888 19.1133 15.6523C17.7852 17.8268 15.8939 19.3372 13.4395 20.1836C12.196 20.5026 11.2227 20.6621 10.5195 20.6621H10.2852C7.71354 20.6621 5.32747 19.627 3.12695 17.5566C1.25846 15.4863 0.324219 13.0807 0.324219 10.3398V10.2227C0.324219 10.1315 0.34375 10.0534 0.382812 9.98828C0.382812 9.94271 0.363281 9.91992 0.324219 9.91992C0.578125 7.97982 1.0957 6.41081 1.87695 5.21289C3.11393 3.20117 5.02148 1.76888 7.59961 0.916016C8.56315 0.642578 9.39648 0.505859 10.0996 0.505859ZM8.73242 6.94141L8.79102 8.78711C8.79102 8.8457 8.73242 8.90755 8.61523 8.97266H7.59961V11.0527H8.61523C8.67383 11.0527 8.73242 11.1146 8.79102 11.2383V16.3652L8.82031 16.7266H10.9395V11.1797C10.9525 11.0951 10.9915 11.0527 11.0566 11.0527H12.7852C12.8633 11.0527 12.9642 10.3984 13.0879 9.08984V8.97266H11.0566C10.9785 8.97266 10.9395 8.93359 10.9395 8.85547V7.41992C10.9395 6.80794 11.2975 6.4694 12.0137 6.4043H13.2051V4.61719C13.2051 4.5 12.7884 4.44141 11.9551 4.44141H11.6523C10.2786 4.44141 9.38346 4.95573 8.9668 5.98438C8.88867 6.19922 8.81055 6.51823 8.73242 6.94141Z" fill="#43C6AC"/>
</svg>
