<svg width="21" height="21" viewBox="0 0 21 21" fill="none" xmlns="http://www.w3.org/2000/svg">
<path d="M11.6445 0.496094C13.4219 0.496094 15.3685 1.29036 17.4844 2.87891C19.8281 5.10547 21 7.64779 21 10.5059C21 13.8392 19.5286 16.6224 16.5859 18.8555C14.8281 20.0078 12.9434 20.584 10.9316 20.584C7.2793 20.584 4.37565 18.9141 2.2207 15.5742C1.30924 13.9596 0.853516 12.2702 0.853516 10.5059C0.853516 7.26367 2.26302 4.54232 5.08203 2.3418C6.625 1.2806 8.25586 0.665365 9.97461 0.496094H11.6445ZM5.38477 7.64453V14.0898C5.43685 14.487 5.63542 14.6855 5.98047 14.6855H15.873C16.2702 14.627 16.4688 14.4284 16.4688 14.0898V7.71289C16.4688 7.47201 16.3516 7.27018 16.1172 7.10742H5.73633C5.50195 7.25065 5.38477 7.42969 5.38477 7.64453ZM6.03906 7.71289H6.09766C6.47526 7.9668 7.66667 8.9401 9.67188 10.6328C10.0885 10.9974 10.5085 11.3327 10.9316 11.6387C12.6243 10.265 14.151 8.99544 15.5117 7.83008L15.5801 7.94727C14.8314 8.59831 13.9557 9.45117 12.9531 10.5059L15.873 13.9629V14.0898L12.5332 10.8086H12.4746C12.4746 10.9193 11.9603 11.4564 10.9316 12.4199L9.26172 10.8672C8.16797 12.013 7.05469 13.1068 5.92188 14.1484V14.0312L8.90039 10.5059C8.58789 10.1413 7.63411 9.21029 6.03906 7.71289Z" fill="#43C6AC"/>
</svg>
