<svg width="21" height="21" viewBox="0 0 21 21" fill="none" xmlns="http://www.w3.org/2000/svg">
<path d="M9.67969 0.525391H11.1152C12.6517 0.525391 14.3997 1.16016 16.3594 2.42969C17.8372 3.58203 18.9082 4.91341 19.5723 6.42383C20.1712 7.86263 20.4707 9.07682 20.4707 10.0664V10.8965C20.4707 13.123 19.556 15.3301 17.7266 17.5176C15.6042 19.5814 13.14 20.6133 10.334 20.6133C6.83138 20.6133 3.97005 18.9824 1.75 15.7207C0.799479 13.9629 0.324219 12.2344 0.324219 10.5352C0.324219 7.73568 1.47656 5.21289 3.78125 2.9668C5.92969 1.33919 7.89583 0.525391 9.67969 0.525391ZM5.03125 9.22656V12.332C5.03125 14.0247 5.56836 15.1543 6.64258 15.7207C7.12435 15.9941 8.67383 16.0951 11.291 16.0234C13.2962 16.0234 14.4486 15.8053 14.748 15.3691C15.4251 14.8288 15.7637 13.9336 15.7637 12.6836V8.68945C15.7637 7.11393 15.207 6.08203 14.0938 5.59375L13.3516 5.34961L12.5996 5.29102H8.25391C6.70443 5.29102 5.66927 6.04622 5.14844 7.55664C5.07031 8.01888 5.03125 8.57552 5.03125 9.22656ZM8.42969 6.24805H12.5996C14.11 6.24805 14.8652 7.04232 14.8652 8.63086V12.8594C14.6634 14.3307 14.0482 15.0664 13.0195 15.0664H11.291C10.4837 15.0664 9.63086 15.0859 8.73242 15.125C7.23503 15.125 6.35938 14.6497 6.10547 13.6992C6.02734 13.1719 5.98828 12.3776 5.98828 11.3164V9.99805C5.98828 8.01237 6.14779 7.01953 6.4668 7.01953C6.78581 6.50521 7.4401 6.24805 8.42969 6.24805ZM12.6582 7.85938C12.834 8.25651 13.0553 8.45508 13.3223 8.45508C13.5892 8.45508 13.8073 8.25651 13.9766 7.85938C13.8854 7.3776 13.6445 7.13672 13.2539 7.13672C12.8568 7.26042 12.6582 7.5013 12.6582 7.85938ZM7.6582 10.7207C7.6582 12.0033 8.39388 12.8952 9.86523 13.3965H11.0566C12.4824 12.8822 13.1953 11.9707 13.1953 10.6621V10.5352C13.1953 9.79297 12.8177 9.09961 12.0625 8.45508C11.5482 8.09701 11.0143 7.91797 10.4609 7.91797H10.4023C9.17188 7.91797 8.31576 8.55273 7.83398 9.82227C7.76888 9.9069 7.71029 10.2064 7.6582 10.7207ZM10.4023 8.86523H10.4609C11.3203 8.86523 11.8965 9.32422 12.1895 10.2422C12.2285 10.2943 12.248 10.4342 12.248 10.6621C12.0592 11.8926 11.4635 12.5078 10.4609 12.5078C9.66667 12.5078 9.09049 12.1107 8.73242 11.3164C8.68034 11.2513 8.63802 11.0527 8.60547 10.7207C8.7487 9.48372 9.34766 8.86523 10.4023 8.86523Z" fill="#43C6AC"/>
</svg>
