<svg width="21" height="21" viewBox="0 0 21 21" fill="none" xmlns="http://www.w3.org/2000/svg">
<path d="M10.7461 0.496094H11.2148C13.3177 0.496094 15.4173 1.30664 17.5137 2.92773C19.0697 4.49023 20.0202 5.89648 20.3652 7.14648C20.5996 7.66732 20.7559 8.26302 20.834 8.93359C20.9121 9.59766 20.9512 10.0306 20.9512 10.2324V10.7598V11.1797C20.7949 12.6185 20.4792 13.8262 20.0039 14.8027C18.9557 16.9251 17.3542 18.5267 15.1992 19.6074C13.6562 20.2454 12.2695 20.5645 11.0391 20.5645H10.9219C8.4349 20.5645 6.15951 19.653 4.0957 17.8301C2.80013 16.4824 1.98958 15.2943 1.66406 14.2656C1.30599 13.4648 1.06836 12.4557 0.951172 11.2383V9.98828C0.951172 7.94401 1.80078 5.86719 3.5 3.75781C5.72656 1.58333 8.14193 0.496094 10.7461 0.496094ZM6.94727 6.90234V7.26367C7.05794 7.85612 7.43229 8.15234 8.07031 8.15234C8.59115 8.15234 8.94922 7.85612 9.14453 7.26367V7.20508C9.14453 6.5931 8.76693 6.23503 8.01172 6.13086C7.54948 6.13086 7.19466 6.38802 6.94727 6.90234ZM12.0547 9.51953H11.9277V8.92383H10.0332V14.5684C10.0462 14.6465 10.0853 14.6855 10.1504 14.6855H11.8105C11.8887 14.6855 11.9277 14.6465 11.9277 14.5684V11.541C12.0254 10.7077 12.3639 10.291 12.9434 10.291C13.6139 10.291 13.9492 10.7077 13.9492 11.541V14.5684C13.9622 14.6465 14.0013 14.6855 14.0664 14.6855H15.8535V10.9453C15.8535 10.2747 15.5345 9.65951 14.8965 9.09961C14.4147 8.9043 14.1185 8.80664 14.0078 8.80664H13.4121C12.9499 8.82617 12.4974 9.0638 12.0547 9.51953ZM7.06445 9.04102V14.5684C7.07747 14.6465 7.11654 14.6855 7.18164 14.6855H8.8418C8.91992 14.6855 8.95898 14.6465 8.95898 14.5684V9.1582L8.8418 8.92383H7.18164C7.10352 8.93685 7.06445 8.97591 7.06445 9.04102Z" fill="#43C6AC"/>
</svg>
