<svg width="21" height="21" viewBox="0 0 21 21" fill="none" xmlns="http://www.w3.org/2000/svg">
<path d="M10.2559 0.496094H10.666C12.9056 0.496094 15.0671 1.34896 17.1504 3.05469C19.3639 5.30078 20.4707 7.65755 20.4707 10.125V11.082C20.4707 12.5143 19.9173 14.1973 18.8105 16.1309C17.4434 18.084 15.5814 19.4316 13.2246 20.1738C12.1309 20.4473 11.2194 20.584 10.4902 20.584H10.4316C7.70378 20.584 5.26562 19.5163 3.11719 17.3809C1.29427 15.2975 0.382812 13.0189 0.382812 10.5449C0.382812 7.90169 1.41471 5.48307 3.47852 3.28906C5.62695 1.42708 7.88607 0.496094 10.2559 0.496094ZM10.8516 8.81641V9.29492C10.8516 9.37305 10.8092 9.41211 10.7246 9.41211C9.48112 9.24284 8.41341 8.80664 7.52148 8.10352L6.69141 7.33203H6.62305C6.62305 7.39714 6.54492 7.55664 6.38867 7.81055V8.52344C6.44076 8.92708 6.71745 9.38281 7.21875 9.89062V9.94922C6.94531 9.94922 6.66862 9.87109 6.38867 9.71484V9.77344C6.38867 10.5352 6.88346 11.1895 7.87305 11.7363L7.75586 11.7949H7.46289L7.16016 11.7363V11.8535C7.61589 12.6868 8.19206 13.1035 8.88867 13.1035V13.2793C8.10742 13.7546 7.33268 13.9922 6.56445 13.9922H6.21289V14.1094C7.33268 14.6237 8.30273 14.8809 9.12305 14.8809C10.8418 14.8809 12.3066 14.1875 13.5176 12.8008C14.39 11.5898 14.8262 10.4408 14.8262 9.35352V8.94336C15.4577 8.33789 15.7767 7.99935 15.7832 7.92773V7.86914C15.5553 7.98633 15.2363 8.08724 14.8262 8.17188L14.7676 8.04492C15.1387 7.83008 15.4154 7.53385 15.5977 7.15625V7.09766H15.5391C14.9531 7.3776 14.5983 7.51758 14.4746 7.51758H14.2988C13.8626 7.15951 13.4655 6.96094 13.1074 6.92188H12.6289C11.9648 6.92188 11.431 7.29622 11.0273 8.04492C10.9102 8.24023 10.8516 8.4974 10.8516 8.81641Z" fill="#43C6AC"/>
</svg>
